<?xml version="1.0" encoding="utf-8" standalone="no"?>
<!DOCTYPE svg PUBLIC "-//W3C//DTD SVG 1.1//EN"
  "http://www.w3.org/Graphics/SVG/1.1/DTD/svg11.dtd">
<!-- Created with matplotlib (http://matplotlib.org/) -->
<svg height="432pt" version="1.1" viewBox="0 0 720 432" width="720pt" xmlns="http://www.w3.org/2000/svg" xmlns:xlink="http://www.w3.org/1999/xlink">
 <defs>
  <style type="text/css">
*{stroke-linecap:butt;stroke-linejoin:round;}
  </style>
 </defs>
 <g id="figure_1">
  <g id="patch_1">
   <path d="M 0 432 
L 720 432 
L 720 0 
L 0 0 
z
" style="fill:#ffffff;"/>
  </g>
  <g id="axes_1">
   <g id="patch_2">
    <path d="M 90 378 
L 648 378 
L 648 51.84 
L 90 51.84 
z
" style="fill:#ffffff;"/>
   </g>
   <g id="PathCollection_1">
    <defs>
     <path d="M 0 3 
C 0.795609 3 1.55874 2.683901 2.12132 2.12132 
C 2.683901 1.55874 3 0.795609 3 0 
C 3 -0.795609 2.683901 -1.55874 2.12132 -2.12132 
C 1.55874 -2.683901 0.795609 -3 0 -3 
C -0.795609 -3 -1.55874 -2.683901 -2.12132 -2.12132 
C -2.683901 -1.55874 -3 -0.795609 -3 0 
C -3 0.795609 -2.683901 1.55874 -2.12132 2.12132 
C -1.55874 2.683901 -0.795609 3 0 3 
z
" id="m19675ad550" style="stroke:#1f77b4;"/>
    </defs>
    <g clip-path="url(#pf8520b623c)">
     <use style="fill:#1f77b4;stroke:#1f77b4;" x="203.694094" xlink:href="#m19675ad550" y="187.74"/>
     <use style="fill:#1f77b4;stroke:#1f77b4;" x="218.384569" xlink:href="#m19675ad550" y="187.74"/>
     <use style="fill:#1f77b4;stroke:#1f77b4;" x="228.042275" xlink:href="#m19675ad550" y="187.74"/>
     <use style="fill:#1f77b4;stroke:#1f77b4;" x="229.746274" xlink:href="#m19675ad550" y="187.74"/>
     <use style="fill:#1f77b4;stroke:#1f77b4;" x="244.08314" xlink:href="#m19675ad550" y="187.74"/>
     <use style="fill:#1f77b4;stroke:#1f77b4;" x="253.229959" xlink:href="#m19675ad550" y="187.74"/>
     <use style="fill:#1f77b4;stroke:#1f77b4;" x="257.745657" xlink:href="#m19675ad550" y="187.74"/>
     <use style="fill:#1f77b4;stroke:#1f77b4;" x="272.626455" xlink:href="#m19675ad550" y="187.74"/>
     <use style="fill:#1f77b4;stroke:#1f77b4;" x="273.788267" xlink:href="#m19675ad550" y="187.74"/>
     <use style="fill:#1f77b4;stroke:#1f77b4;" x="279.12787" xlink:href="#m19675ad550" y="187.74"/>
     <use style="fill:#1f77b4;stroke:#1f77b4;" x="283.975516" xlink:href="#m19675ad550" y="187.74"/>
     <use style="fill:#1f77b4;stroke:#1f77b4;" x="290.895587" xlink:href="#m19675ad550" y="187.74"/>
     <use style="fill:#1f77b4;stroke:#1f77b4;" x="295.056911" xlink:href="#m19675ad550" y="187.74"/>
     <use style="fill:#1f77b4;stroke:#1f77b4;" x="298.142562" xlink:href="#m19675ad550" y="187.74"/>
     <use style="fill:#1f77b4;stroke:#1f77b4;" x="305.117843" xlink:href="#m19675ad550" y="187.74"/>
     <use style="fill:#1f77b4;stroke:#1f77b4;" x="316.889532" xlink:href="#m19675ad550" y="187.74"/>
     <use style="fill:#1f77b4;stroke:#1f77b4;" x="317.169933" xlink:href="#m19675ad550" y="187.74"/>
     <use style="fill:#1f77b4;stroke:#1f77b4;" x="317.745075" xlink:href="#m19675ad550" y="187.74"/>
     <use style="fill:#1f77b4;stroke:#1f77b4;" x="319.468486" xlink:href="#m19675ad550" y="187.74"/>
     <use style="fill:#1f77b4;stroke:#1f77b4;" x="334.702053" xlink:href="#m19675ad550" y="187.74"/>
     <use style="fill:#1f77b4;stroke:#1f77b4;" x="357.115986" xlink:href="#m19675ad550" y="187.74"/>
     <use style="fill:#1f77b4;stroke:#1f77b4;" x="360.778362" xlink:href="#m19675ad550" y="187.74"/>
     <use style="fill:#1f77b4;stroke:#1f77b4;" x="367.486189" xlink:href="#m19675ad550" y="187.74"/>
     <use style="fill:#1f77b4;stroke:#1f77b4;" x="398.593539" xlink:href="#m19675ad550" y="187.74"/>
     <use style="fill:#1f77b4;stroke:#1f77b4;" x="400.464285" xlink:href="#m19675ad550" y="187.74"/>
     <use style="fill:#1f77b4;stroke:#1f77b4;" x="405.262482" xlink:href="#m19675ad550" y="187.74"/>
     <use style="fill:#1f77b4;stroke:#1f77b4;" x="421.840187" xlink:href="#m19675ad550" y="187.74"/>
     <use style="fill:#1f77b4;stroke:#1f77b4;" x="435.874177" xlink:href="#m19675ad550" y="187.74"/>
     <use style="fill:#1f77b4;stroke:#1f77b4;" x="479.798478" xlink:href="#m19675ad550" y="187.74"/>
     <use style="fill:#1f77b4;stroke:#1f77b4;" x="484.830306" xlink:href="#m19675ad550" y="187.74"/>
     <use style="fill:#1f77b4;stroke:#1f77b4;" x="500.255968" xlink:href="#m19675ad550" y="187.74"/>
     <use style="fill:#1f77b4;stroke:#1f77b4;" x="529.332189" xlink:href="#m19675ad550" y="187.74"/>
     <use style="fill:#1f77b4;stroke:#1f77b4;" x="537.171639" xlink:href="#m19675ad550" y="187.74"/>
     <use style="fill:#1f77b4;stroke:#1f77b4;" x="537.795813" xlink:href="#m19675ad550" y="187.74"/>
     <use style="fill:#1f77b4;stroke:#1f77b4;" x="591.371676" xlink:href="#m19675ad550" y="187.74"/>
     <use style="fill:#1f77b4;stroke:#1f77b4;" x="622.636364" xlink:href="#m19675ad550" y="187.74"/>
    </g>
   </g>
   <g id="PathCollection_2">
    <defs>
     <path d="M 0 3 
C 0.795609 3 1.55874 2.683901 2.12132 2.12132 
C 2.683901 1.55874 3 0.795609 3 0 
C 3 -0.795609 2.683901 -1.55874 2.12132 -2.12132 
C 1.55874 -2.683901 0.795609 -3 0 -3 
C -0.795609 -3 -1.55874 -2.683901 -2.12132 -2.12132 
C -2.683901 -1.55874 -3 -0.795609 -3 0 
C -3 0.795609 -2.683901 1.55874 -2.12132 2.12132 
C -1.55874 2.683901 -0.795609 3 0 3 
z
" id="m2e20a83c7d" style="stroke:#ff7f0e;"/>
    </defs>
    <g clip-path="url(#pf8520b623c)">
     <use style="fill:#ff7f0e;stroke:#ff7f0e;" x="216.168869" xlink:href="#m2e20a83c7d" y="242.1"/>
     <use style="fill:#ff7f0e;stroke:#ff7f0e;" x="257.532726" xlink:href="#m2e20a83c7d" y="242.1"/>
     <use style="fill:#ff7f0e;stroke:#ff7f0e;" x="280.135806" xlink:href="#m2e20a83c7d" y="242.1"/>
     <use style="fill:#ff7f0e;stroke:#ff7f0e;" x="285.071395" xlink:href="#m2e20a83c7d" y="242.1"/>
     <use style="fill:#ff7f0e;stroke:#ff7f0e;" x="297.593363" xlink:href="#m2e20a83c7d" y="242.1"/>
     <use style="fill:#ff7f0e;stroke:#ff7f0e;" x="318.167745" xlink:href="#m2e20a83c7d" y="242.1"/>
     <use style="fill:#ff7f0e;stroke:#ff7f0e;" x="320.712706" xlink:href="#m2e20a83c7d" y="242.1"/>
     <use style="fill:#ff7f0e;stroke:#ff7f0e;" x="328.316586" xlink:href="#m2e20a83c7d" y="242.1"/>
     <use style="fill:#ff7f0e;stroke:#ff7f0e;" x="334.42396" xlink:href="#m2e20a83c7d" y="242.1"/>
     <use style="fill:#ff7f0e;stroke:#ff7f0e;" x="339.539018" xlink:href="#m2e20a83c7d" y="242.1"/>
     <use style="fill:#ff7f0e;stroke:#ff7f0e;" x="342.426037" xlink:href="#m2e20a83c7d" y="242.1"/>
     <use style="fill:#ff7f0e;stroke:#ff7f0e;" x="366.137884" xlink:href="#m2e20a83c7d" y="242.1"/>
     <use style="fill:#ff7f0e;stroke:#ff7f0e;" x="366.94184" xlink:href="#m2e20a83c7d" y="242.1"/>
     <use style="fill:#ff7f0e;stroke:#ff7f0e;" x="367.177363" xlink:href="#m2e20a83c7d" y="242.1"/>
     <use style="fill:#ff7f0e;stroke:#ff7f0e;" x="369.010474" xlink:href="#m2e20a83c7d" y="242.1"/>
     <use style="fill:#ff7f0e;stroke:#ff7f0e;" x="371.007674" xlink:href="#m2e20a83c7d" y="242.1"/>
     <use style="fill:#ff7f0e;stroke:#ff7f0e;" x="373.407964" xlink:href="#m2e20a83c7d" y="242.1"/>
     <use style="fill:#ff7f0e;stroke:#ff7f0e;" x="378.228492" xlink:href="#m2e20a83c7d" y="242.1"/>
     <use style="fill:#ff7f0e;stroke:#ff7f0e;" x="378.758909" xlink:href="#m2e20a83c7d" y="242.1"/>
     <use style="fill:#ff7f0e;stroke:#ff7f0e;" x="388.90632" xlink:href="#m2e20a83c7d" y="242.1"/>
     <use style="fill:#ff7f0e;stroke:#ff7f0e;" x="405.448785" xlink:href="#m2e20a83c7d" y="242.1"/>
     <use style="fill:#ff7f0e;stroke:#ff7f0e;" x="424.776696" xlink:href="#m2e20a83c7d" y="242.1"/>
     <use style="fill:#ff7f0e;stroke:#ff7f0e;" x="429.181183" xlink:href="#m2e20a83c7d" y="242.1"/>
     <use style="fill:#ff7f0e;stroke:#ff7f0e;" x="442.529346" xlink:href="#m2e20a83c7d" y="242.1"/>
     <use style="fill:#ff7f0e;stroke:#ff7f0e;" x="471.260675" xlink:href="#m2e20a83c7d" y="242.1"/>
     <use style="fill:#ff7f0e;stroke:#ff7f0e;" x="474.469061" xlink:href="#m2e20a83c7d" y="242.1"/>
     <use style="fill:#ff7f0e;stroke:#ff7f0e;" x="478.46361" xlink:href="#m2e20a83c7d" y="242.1"/>
     <use style="fill:#ff7f0e;stroke:#ff7f0e;" x="490.617551" xlink:href="#m2e20a83c7d" y="242.1"/>
     <use style="fill:#ff7f0e;stroke:#ff7f0e;" x="518.153913" xlink:href="#m2e20a83c7d" y="242.1"/>
     <use style="fill:#ff7f0e;stroke:#ff7f0e;" x="527.353202" xlink:href="#m2e20a83c7d" y="242.1"/>
     <use style="fill:#ff7f0e;stroke:#ff7f0e;" x="548.073782" xlink:href="#m2e20a83c7d" y="242.1"/>
     <use style="fill:#ff7f0e;stroke:#ff7f0e;" x="565.798021" xlink:href="#m2e20a83c7d" y="242.1"/>
     <use style="fill:#ff7f0e;stroke:#ff7f0e;" x="570.643699" xlink:href="#m2e20a83c7d" y="242.1"/>
     <use style="fill:#ff7f0e;stroke:#ff7f0e;" x="582.908909" xlink:href="#m2e20a83c7d" y="242.1"/>
     <use style="fill:#ff7f0e;stroke:#ff7f0e;" x="586.880013" xlink:href="#m2e20a83c7d" y="242.1"/>
     <use style="fill:#ff7f0e;stroke:#ff7f0e;" x="622.636364" xlink:href="#m2e20a83c7d" y="242.1"/>
    </g>
   </g>
   <g id="matplotlib.axis_1">
    <g id="xtick_1">
     <g id="line2d_1">
      <defs>
       <path d="M 0 0 
L 0 3.5 
" id="m7c5cd93576" style="stroke:#000000;stroke-width:0.8;"/>
      </defs>
      <g>
       <use style="stroke:#000000;stroke-width:0.8;" x="115.363636" xlink:href="#m7c5cd93576" y="378"/>
      </g>
     </g>
     <g id="text_1">
      <!-- 0.0 -->
      <defs>
       <path d="M 31.78125 66.40625 
Q 24.171875 66.40625 20.328125 58.90625 
Q 16.5 51.421875 16.5 36.375 
Q 16.5 21.390625 20.328125 13.890625 
Q 24.171875 6.390625 31.78125 6.390625 
Q 39.453125 6.390625 43.28125 13.890625 
Q 47.125 21.390625 47.125 36.375 
Q 47.125 51.421875 43.28125 58.90625 
Q 39.453125 66.40625 31.78125 66.40625 
z
M 31.78125 74.21875 
Q 44.046875 74.21875 50.515625 64.515625 
Q 56.984375 54.828125 56.984375 36.375 
Q 56.984375 17.96875 50.515625 8.265625 
Q 44.046875 -1.421875 31.78125 -1.421875 
Q 19.53125 -1.421875 13.0625 8.265625 
Q 6.59375 17.96875 6.59375 36.375 
Q 6.59375 54.828125 13.0625 64.515625 
Q 19.53125 74.21875 31.78125 74.21875 
z
" id="DejaVuSans-30"/>
       <path d="M 10.6875 12.40625 
L 21 12.40625 
L 21 0 
L 10.6875 0 
z
" id="DejaVuSans-2e"/>
      </defs>
      <g transform="translate(107.412074 392.598437)scale(0.1 -0.1)">
       <use xlink:href="#DejaVuSans-30"/>
       <use x="63.623047" xlink:href="#DejaVuSans-2e"/>
       <use x="95.410156" xlink:href="#DejaVuSans-30"/>
      </g>
     </g>
    </g>
    <g id="xtick_2">
     <g id="line2d_2">
      <g>
       <use style="stroke:#000000;stroke-width:0.8;" x="216.818182" xlink:href="#m7c5cd93576" y="378"/>
      </g>
     </g>
     <g id="text_2">
      <!-- 0.2 -->
      <defs>
       <path d="M 19.1875 8.296875 
L 53.609375 8.296875 
L 53.609375 0 
L 7.328125 0 
L 7.328125 8.296875 
Q 12.9375 14.109375 22.625 23.890625 
Q 32.328125 33.6875 34.8125 36.53125 
Q 39.546875 41.84375 41.421875 45.53125 
Q 43.3125 49.21875 43.3125 52.78125 
Q 43.3125 58.59375 39.234375 62.25 
Q 35.15625 65.921875 28.609375 65.921875 
Q 23.96875 65.921875 18.8125 64.3125 
Q 13.671875 62.703125 7.8125 59.421875 
L 7.8125 69.390625 
Q 13.765625 71.78125 18.9375 73 
Q 24.125 74.21875 28.421875 74.21875 
Q 39.75 74.21875 46.484375 68.546875 
Q 53.21875 62.890625 53.21875 53.421875 
Q 53.21875 48.921875 51.53125 44.890625 
Q 49.859375 40.875 45.40625 35.40625 
Q 44.1875 33.984375 37.640625 27.21875 
Q 31.109375 20.453125 19.1875 8.296875 
z
" id="DejaVuSans-32"/>
      </defs>
      <g transform="translate(208.866619 392.598437)scale(0.1 -0.1)">
       <use xlink:href="#DejaVuSans-30"/>
       <use x="63.623047" xlink:href="#DejaVuSans-2e"/>
       <use x="95.410156" xlink:href="#DejaVuSans-32"/>
      </g>
     </g>
    </g>
    <g id="xtick_3">
     <g id="line2d_3">
      <g>
       <use style="stroke:#000000;stroke-width:0.8;" x="318.272727" xlink:href="#m7c5cd93576" y="378"/>
      </g>
     </g>
     <g id="text_3">
      <!-- 0.4 -->
      <defs>
       <path d="M 37.796875 64.3125 
L 12.890625 25.390625 
L 37.796875 25.390625 
z
M 35.203125 72.90625 
L 47.609375 72.90625 
L 47.609375 25.390625 
L 58.015625 25.390625 
L 58.015625 17.1875 
L 47.609375 17.1875 
L 47.609375 0 
L 37.796875 0 
L 37.796875 17.1875 
L 4.890625 17.1875 
L 4.890625 26.703125 
z
" id="DejaVuSans-34"/>
      </defs>
      <g transform="translate(310.321165 392.598437)scale(0.1 -0.1)">
       <use xlink:href="#DejaVuSans-30"/>
       <use x="63.623047" xlink:href="#DejaVuSans-2e"/>
       <use x="95.410156" xlink:href="#DejaVuSans-34"/>
      </g>
     </g>
    </g>
    <g id="xtick_4">
     <g id="line2d_4">
      <g>
       <use style="stroke:#000000;stroke-width:0.8;" x="419.727273" xlink:href="#m7c5cd93576" y="378"/>
      </g>
     </g>
     <g id="text_4">
      <!-- 0.6 -->
      <defs>
       <path d="M 33.015625 40.375 
Q 26.375 40.375 22.484375 35.828125 
Q 18.609375 31.296875 18.609375 23.390625 
Q 18.609375 15.53125 22.484375 10.953125 
Q 26.375 6.390625 33.015625 6.390625 
Q 39.65625 6.390625 43.53125 10.953125 
Q 47.40625 15.53125 47.40625 23.390625 
Q 47.40625 31.296875 43.53125 35.828125 
Q 39.65625 40.375 33.015625 40.375 
z
M 52.59375 71.296875 
L 52.59375 62.3125 
Q 48.875 64.0625 45.09375 64.984375 
Q 41.3125 65.921875 37.59375 65.921875 
Q 27.828125 65.921875 22.671875 59.328125 
Q 17.53125 52.734375 16.796875 39.40625 
Q 19.671875 43.65625 24.015625 45.921875 
Q 28.375 48.1875 33.59375 48.1875 
Q 44.578125 48.1875 50.953125 41.515625 
Q 57.328125 34.859375 57.328125 23.390625 
Q 57.328125 12.15625 50.6875 5.359375 
Q 44.046875 -1.421875 33.015625 -1.421875 
Q 20.359375 -1.421875 13.671875 8.265625 
Q 6.984375 17.96875 6.984375 36.375 
Q 6.984375 53.65625 15.1875 63.9375 
Q 23.390625 74.21875 37.203125 74.21875 
Q 40.921875 74.21875 44.703125 73.484375 
Q 48.484375 72.75 52.59375 71.296875 
z
" id="DejaVuSans-36"/>
      </defs>
      <g transform="translate(411.77571 392.598437)scale(0.1 -0.1)">
       <use xlink:href="#DejaVuSans-30"/>
       <use x="63.623047" xlink:href="#DejaVuSans-2e"/>
       <use x="95.410156" xlink:href="#DejaVuSans-36"/>
      </g>
     </g>
    </g>
    <g id="xtick_5">
     <g id="line2d_5">
      <g>
       <use style="stroke:#000000;stroke-width:0.8;" x="521.181818" xlink:href="#m7c5cd93576" y="378"/>
      </g>
     </g>
     <g id="text_5">
      <!-- 0.8 -->
      <defs>
       <path d="M 31.78125 34.625 
Q 24.75 34.625 20.71875 30.859375 
Q 16.703125 27.09375 16.703125 20.515625 
Q 16.703125 13.921875 20.71875 10.15625 
Q 24.75 6.390625 31.78125 6.390625 
Q 38.8125 6.390625 42.859375 10.171875 
Q 46.921875 13.96875 46.921875 20.515625 
Q 46.921875 27.09375 42.890625 30.859375 
Q 38.875 34.625 31.78125 34.625 
z
M 21.921875 38.8125 
Q 15.578125 40.375 12.03125 44.71875 
Q 8.5 49.078125 8.5 55.328125 
Q 8.5 64.0625 14.71875 69.140625 
Q 20.953125 74.21875 31.78125 74.21875 
Q 42.671875 74.21875 48.875 69.140625 
Q 55.078125 64.0625 55.078125 55.328125 
Q 55.078125 49.078125 51.53125 44.71875 
Q 48 40.375 41.703125 38.8125 
Q 48.828125 37.15625 52.796875 32.3125 
Q 56.78125 27.484375 56.78125 20.515625 
Q 56.78125 9.90625 50.3125 4.234375 
Q 43.84375 -1.421875 31.78125 -1.421875 
Q 19.734375 -1.421875 13.25 4.234375 
Q 6.78125 9.90625 6.78125 20.515625 
Q 6.78125 27.484375 10.78125 32.3125 
Q 14.796875 37.15625 21.921875 38.8125 
z
M 18.3125 54.390625 
Q 18.3125 48.734375 21.84375 45.5625 
Q 25.390625 42.390625 31.78125 42.390625 
Q 38.140625 42.390625 41.71875 45.5625 
Q 45.3125 48.734375 45.3125 54.390625 
Q 45.3125 60.0625 41.71875 63.234375 
Q 38.140625 66.40625 31.78125 66.40625 
Q 25.390625 66.40625 21.84375 63.234375 
Q 18.3125 60.0625 18.3125 54.390625 
z
" id="DejaVuSans-38"/>
      </defs>
      <g transform="translate(513.230256 392.598437)scale(0.1 -0.1)">
       <use xlink:href="#DejaVuSans-30"/>
       <use x="63.623047" xlink:href="#DejaVuSans-2e"/>
       <use x="95.410156" xlink:href="#DejaVuSans-38"/>
      </g>
     </g>
    </g>
    <g id="xtick_6">
     <g id="line2d_6">
      <g>
       <use style="stroke:#000000;stroke-width:0.8;" x="622.636364" xlink:href="#m7c5cd93576" y="378"/>
      </g>
     </g>
     <g id="text_6">
      <!-- 1.0 -->
      <defs>
       <path d="M 12.40625 8.296875 
L 28.515625 8.296875 
L 28.515625 63.921875 
L 10.984375 60.40625 
L 10.984375 69.390625 
L 28.421875 72.90625 
L 38.28125 72.90625 
L 38.28125 8.296875 
L 54.390625 8.296875 
L 54.390625 0 
L 12.40625 0 
z
" id="DejaVuSans-31"/>
      </defs>
      <g transform="translate(614.684801 392.598437)scale(0.1 -0.1)">
       <use xlink:href="#DejaVuSans-31"/>
       <use x="63.623047" xlink:href="#DejaVuSans-2e"/>
       <use x="95.410156" xlink:href="#DejaVuSans-30"/>
      </g>
     </g>
    </g>
    <g id="text_7">
     <!-- Letter Difficulty -->
     <defs>
      <path d="M 9.8125 72.90625 
L 19.671875 72.90625 
L 19.671875 8.296875 
L 55.171875 8.296875 
L 55.171875 0 
L 9.8125 0 
z
" id="DejaVuSans-4c"/>
      <path d="M 56.203125 29.59375 
L 56.203125 25.203125 
L 14.890625 25.203125 
Q 15.484375 15.921875 20.484375 11.0625 
Q 25.484375 6.203125 34.421875 6.203125 
Q 39.59375 6.203125 44.453125 7.46875 
Q 49.3125 8.734375 54.109375 11.28125 
L 54.109375 2.78125 
Q 49.265625 0.734375 44.1875 -0.34375 
Q 39.109375 -1.421875 33.890625 -1.421875 
Q 20.796875 -1.421875 13.15625 6.1875 
Q 5.515625 13.8125 5.515625 26.8125 
Q 5.515625 40.234375 12.765625 48.109375 
Q 20.015625 56 32.328125 56 
Q 43.359375 56 49.78125 48.890625 
Q 56.203125 41.796875 56.203125 29.59375 
z
M 47.21875 32.234375 
Q 47.125 39.59375 43.09375 43.984375 
Q 39.0625 48.390625 32.421875 48.390625 
Q 24.90625 48.390625 20.390625 44.140625 
Q 15.875 39.890625 15.1875 32.171875 
z
" id="DejaVuSans-65"/>
      <path d="M 18.3125 70.21875 
L 18.3125 54.6875 
L 36.8125 54.6875 
L 36.8125 47.703125 
L 18.3125 47.703125 
L 18.3125 18.015625 
Q 18.3125 11.328125 20.140625 9.421875 
Q 21.96875 7.515625 27.59375 7.515625 
L 36.8125 7.515625 
L 36.8125 0 
L 27.59375 0 
Q 17.1875 0 13.234375 3.875 
Q 9.28125 7.765625 9.28125 18.015625 
L 9.28125 47.703125 
L 2.6875 47.703125 
L 2.6875 54.6875 
L 9.28125 54.6875 
L 9.28125 70.21875 
z
" id="DejaVuSans-74"/>
      <path d="M 41.109375 46.296875 
Q 39.59375 47.171875 37.8125 47.578125 
Q 36.03125 48 33.890625 48 
Q 26.265625 48 22.1875 43.046875 
Q 18.109375 38.09375 18.109375 28.8125 
L 18.109375 0 
L 9.078125 0 
L 9.078125 54.6875 
L 18.109375 54.6875 
L 18.109375 46.1875 
Q 20.953125 51.171875 25.484375 53.578125 
Q 30.03125 56 36.53125 56 
Q 37.453125 56 38.578125 55.875 
Q 39.703125 55.765625 41.0625 55.515625 
z
" id="DejaVuSans-72"/>
      <path id="DejaVuSans-20"/>
      <path d="M 19.671875 64.796875 
L 19.671875 8.109375 
L 31.59375 8.109375 
Q 46.6875 8.109375 53.6875 14.9375 
Q 60.6875 21.78125 60.6875 36.53125 
Q 60.6875 51.171875 53.6875 57.984375 
Q 46.6875 64.796875 31.59375 64.796875 
z
M 9.8125 72.90625 
L 30.078125 72.90625 
Q 51.265625 72.90625 61.171875 64.09375 
Q 71.09375 55.28125 71.09375 36.53125 
Q 71.09375 17.671875 61.125 8.828125 
Q 51.171875 0 30.078125 0 
L 9.8125 0 
z
" id="DejaVuSans-44"/>
      <path d="M 9.421875 54.6875 
L 18.40625 54.6875 
L 18.40625 0 
L 9.421875 0 
z
M 9.421875 75.984375 
L 18.40625 75.984375 
L 18.40625 64.59375 
L 9.421875 64.59375 
z
" id="DejaVuSans-69"/>
      <path d="M 37.109375 75.984375 
L 37.109375 68.5 
L 28.515625 68.5 
Q 23.6875 68.5 21.796875 66.546875 
Q 19.921875 64.59375 19.921875 59.515625 
L 19.921875 54.6875 
L 34.71875 54.6875 
L 34.71875 47.703125 
L 19.921875 47.703125 
L 19.921875 0 
L 10.890625 0 
L 10.890625 47.703125 
L 2.296875 47.703125 
L 2.296875 54.6875 
L 10.890625 54.6875 
L 10.890625 58.5 
Q 10.890625 67.625 15.140625 71.796875 
Q 19.390625 75.984375 28.609375 75.984375 
z
" id="DejaVuSans-66"/>
      <path d="M 48.78125 52.59375 
L 48.78125 44.1875 
Q 44.96875 46.296875 41.140625 47.34375 
Q 37.3125 48.390625 33.40625 48.390625 
Q 24.65625 48.390625 19.8125 42.84375 
Q 14.984375 37.3125 14.984375 27.296875 
Q 14.984375 17.28125 19.8125 11.734375 
Q 24.65625 6.203125 33.40625 6.203125 
Q 37.3125 6.203125 41.140625 7.25 
Q 44.96875 8.296875 48.78125 10.40625 
L 48.78125 2.09375 
Q 45.015625 0.34375 40.984375 -0.53125 
Q 36.96875 -1.421875 32.421875 -1.421875 
Q 20.0625 -1.421875 12.78125 6.34375 
Q 5.515625 14.109375 5.515625 27.296875 
Q 5.515625 40.671875 12.859375 48.328125 
Q 20.21875 56 33.015625 56 
Q 37.15625 56 41.109375 55.140625 
Q 45.0625 54.296875 48.78125 52.59375 
z
" id="DejaVuSans-63"/>
      <path d="M 8.5 21.578125 
L 8.5 54.6875 
L 17.484375 54.6875 
L 17.484375 21.921875 
Q 17.484375 14.15625 20.5 10.265625 
Q 23.53125 6.390625 29.59375 6.390625 
Q 36.859375 6.390625 41.078125 11.03125 
Q 45.3125 15.671875 45.3125 23.6875 
L 45.3125 54.6875 
L 54.296875 54.6875 
L 54.296875 0 
L 45.3125 0 
L 45.3125 8.40625 
Q 42.046875 3.421875 37.71875 1 
Q 33.40625 -1.421875 27.6875 -1.421875 
Q 18.265625 -1.421875 13.375 4.4375 
Q 8.5 10.296875 8.5 21.578125 
z
M 31.109375 56 
z
" id="DejaVuSans-75"/>
      <path d="M 9.421875 75.984375 
L 18.40625 75.984375 
L 18.40625 0 
L 9.421875 0 
z
" id="DejaVuSans-6c"/>
      <path d="M 32.171875 -5.078125 
Q 28.375 -14.84375 24.75 -17.8125 
Q 21.140625 -20.796875 15.09375 -20.796875 
L 7.90625 -20.796875 
L 7.90625 -13.28125 
L 13.1875 -13.28125 
Q 16.890625 -13.28125 18.9375 -11.515625 
Q 21 -9.765625 23.484375 -3.21875 
L 25.09375 0.875 
L 2.984375 54.6875 
L 12.5 54.6875 
L 29.59375 11.921875 
L 46.6875 54.6875 
L 56.203125 54.6875 
z
" id="DejaVuSans-79"/>
     </defs>
     <g transform="translate(330.121875 406.276563)scale(0.1 -0.1)">
      <use xlink:href="#DejaVuSans-4c"/>
      <use x="55.697266" xlink:href="#DejaVuSans-65"/>
      <use x="117.220703" xlink:href="#DejaVuSans-74"/>
      <use x="156.429688" xlink:href="#DejaVuSans-74"/>
      <use x="195.638672" xlink:href="#DejaVuSans-65"/>
      <use x="257.162109" xlink:href="#DejaVuSans-72"/>
      <use x="298.275391" xlink:href="#DejaVuSans-20"/>
      <use x="330.0625" xlink:href="#DejaVuSans-44"/>
      <use x="407.064453" xlink:href="#DejaVuSans-69"/>
      <use x="434.847656" xlink:href="#DejaVuSans-66"/>
      <use x="470.052734" xlink:href="#DejaVuSans-66"/>
      <use x="505.257812" xlink:href="#DejaVuSans-69"/>
      <use x="533.041016" xlink:href="#DejaVuSans-63"/>
      <use x="588.021484" xlink:href="#DejaVuSans-75"/>
      <use x="651.400391" xlink:href="#DejaVuSans-6c"/>
      <use x="679.183594" xlink:href="#DejaVuSans-74"/>
      <use x="718.392578" xlink:href="#DejaVuSans-79"/>
     </g>
    </g>
   </g>
   <g id="patch_3">
    <path d="M 90 378 
L 90 51.84 
" style="fill:none;stroke:#000000;stroke-linecap:square;stroke-linejoin:miter;stroke-width:0.8;"/>
   </g>
   <g id="patch_4">
    <path d="M 648 378 
L 648 51.84 
" style="fill:none;stroke:#000000;stroke-linecap:square;stroke-linejoin:miter;stroke-width:0.8;"/>
   </g>
   <g id="patch_5">
    <path d="M 90 378 
L 648 378 
" style="fill:none;stroke:#000000;stroke-linecap:square;stroke-linejoin:miter;stroke-width:0.8;"/>
   </g>
   <g id="patch_6">
    <path d="M 90 51.84 
L 648 51.84 
" style="fill:none;stroke:#000000;stroke-linecap:square;stroke-linejoin:miter;stroke-width:0.8;"/>
   </g>
   <g id="text_8">
    <!-- c -->
    <g transform="translate(201.15773 180.945)scale(0.12 -0.12)">
     <use xlink:href="#DejaVuSans-63"/>
    </g>
   </g>
   <g id="text_9">
    <!-- a -->
    <defs>
     <path d="M 34.28125 27.484375 
Q 23.390625 27.484375 19.1875 25 
Q 14.984375 22.515625 14.984375 16.5 
Q 14.984375 11.71875 18.140625 8.90625 
Q 21.296875 6.109375 26.703125 6.109375 
Q 34.1875 6.109375 38.703125 11.40625 
Q 43.21875 16.703125 43.21875 25.484375 
L 43.21875 27.484375 
z
M 52.203125 31.203125 
L 52.203125 0 
L 43.21875 0 
L 43.21875 8.296875 
Q 40.140625 3.328125 35.546875 0.953125 
Q 30.953125 -1.421875 24.3125 -1.421875 
Q 15.921875 -1.421875 10.953125 3.296875 
Q 6 8.015625 6 15.921875 
Q 6 25.140625 12.171875 29.828125 
Q 18.359375 34.515625 30.609375 34.515625 
L 43.21875 34.515625 
L 43.21875 35.40625 
Q 43.21875 41.609375 39.140625 45 
Q 35.0625 48.390625 27.6875 48.390625 
Q 23 48.390625 18.546875 47.265625 
Q 14.109375 46.140625 10.015625 43.890625 
L 10.015625 52.203125 
Q 14.9375 54.109375 19.578125 55.046875 
Q 24.21875 56 28.609375 56 
Q 40.484375 56 46.34375 49.84375 
Q 52.203125 43.703125 52.203125 31.203125 
z
" id="DejaVuSans-61"/>
    </defs>
    <g transform="translate(215.848205 180.945)scale(0.12 -0.12)">
     <use xlink:href="#DejaVuSans-61"/>
    </g>
   </g>
   <g id="text_10">
    <!-- o -->
    <defs>
     <path d="M 30.609375 48.390625 
Q 23.390625 48.390625 19.1875 42.75 
Q 14.984375 37.109375 14.984375 27.296875 
Q 14.984375 17.484375 19.15625 11.84375 
Q 23.34375 6.203125 30.609375 6.203125 
Q 37.796875 6.203125 41.984375 11.859375 
Q 46.1875 17.53125 46.1875 27.296875 
Q 46.1875 37.015625 41.984375 42.703125 
Q 37.796875 48.390625 30.609375 48.390625 
z
M 30.609375 56 
Q 42.328125 56 49.015625 48.375 
Q 55.71875 40.765625 55.71875 27.296875 
Q 55.71875 13.875 49.015625 6.21875 
Q 42.328125 -1.421875 30.609375 -1.421875 
Q 18.84375 -1.421875 12.171875 6.21875 
Q 5.515625 13.875 5.515625 27.296875 
Q 5.515625 40.765625 12.171875 48.375 
Q 18.84375 56 30.609375 56 
z
" id="DejaVuSans-6f"/>
    </defs>
    <g transform="translate(225.505912 167.355)scale(0.12 -0.12)">
     <use xlink:href="#DejaVuSans-6f"/>
    </g>
   </g>
   <g id="text_11">
    <!-- 0 -->
    <g transform="translate(227.20991 153.765)scale(0.12 -0.12)">
     <use xlink:href="#DejaVuSans-30"/>
    </g>
   </g>
   <g id="text_12">
    <!-- 2 -->
    <g transform="translate(241.546776 180.945)scale(0.12 -0.12)">
     <use xlink:href="#DejaVuSans-32"/>
    </g>
   </g>
   <g id="text_13">
    <!-- e -->
    <g transform="translate(250.693595 167.355)scale(0.12 -0.12)">
     <use xlink:href="#DejaVuSans-65"/>
    </g>
   </g>
   <g id="text_14">
    <!-- 8 -->
    <g transform="translate(255.209293 153.765)scale(0.12 -0.12)">
     <use xlink:href="#DejaVuSans-38"/>
    </g>
   </g>
   <g id="text_15">
    <!-- d -->
    <defs>
     <path d="M 45.40625 46.390625 
L 45.40625 75.984375 
L 54.390625 75.984375 
L 54.390625 0 
L 45.40625 0 
L 45.40625 8.203125 
Q 42.578125 3.328125 38.25 0.953125 
Q 33.9375 -1.421875 27.875 -1.421875 
Q 17.96875 -1.421875 11.734375 6.484375 
Q 5.515625 14.40625 5.515625 27.296875 
Q 5.515625 40.1875 11.734375 48.09375 
Q 17.96875 56 27.875 56 
Q 33.9375 56 38.25 53.625 
Q 42.578125 51.265625 45.40625 46.390625 
z
M 14.796875 27.296875 
Q 14.796875 17.390625 18.875 11.75 
Q 22.953125 6.109375 30.078125 6.109375 
Q 37.203125 6.109375 41.296875 11.75 
Q 45.40625 17.390625 45.40625 27.296875 
Q 45.40625 37.203125 41.296875 42.84375 
Q 37.203125 48.484375 30.078125 48.484375 
Q 22.953125 48.484375 18.875 42.84375 
Q 14.796875 37.203125 14.796875 27.296875 
z
" id="DejaVuSans-64"/>
    </defs>
    <g transform="translate(270.090091 180.945)scale(0.12 -0.12)">
     <use xlink:href="#DejaVuSans-64"/>
    </g>
   </g>
   <g id="text_16">
    <!-- r -->
    <g transform="translate(271.251903 167.355)scale(0.12 -0.12)">
     <use xlink:href="#DejaVuSans-72"/>
    </g>
   </g>
   <g id="text_17">
    <!-- q -->
    <defs>
     <path d="M 14.796875 27.296875 
Q 14.796875 17.390625 18.875 11.75 
Q 22.953125 6.109375 30.078125 6.109375 
Q 37.203125 6.109375 41.296875 11.75 
Q 45.40625 17.390625 45.40625 27.296875 
Q 45.40625 37.203125 41.296875 42.84375 
Q 37.203125 48.484375 30.078125 48.484375 
Q 22.953125 48.484375 18.875 42.84375 
Q 14.796875 37.203125 14.796875 27.296875 
z
M 45.40625 8.203125 
Q 42.578125 3.328125 38.25 0.953125 
Q 33.9375 -1.421875 27.875 -1.421875 
Q 17.96875 -1.421875 11.734375 6.484375 
Q 5.515625 14.40625 5.515625 27.296875 
Q 5.515625 40.1875 11.734375 48.09375 
Q 17.96875 56 27.875 56 
Q 33.9375 56 38.25 53.625 
Q 42.578125 51.265625 45.40625 46.390625 
L 45.40625 54.6875 
L 54.390625 54.6875 
L 54.390625 -20.796875 
L 45.40625 -20.796875 
z
" id="DejaVuSans-71"/>
    </defs>
    <g transform="translate(276.591506 153.765)scale(0.12 -0.12)">
     <use xlink:href="#DejaVuSans-71"/>
    </g>
   </g>
   <g id="text_18">
    <!-- 1 -->
    <g transform="translate(281.439153 140.175)scale(0.12 -0.12)">
     <use xlink:href="#DejaVuSans-31"/>
    </g>
   </g>
   <g id="text_19">
    <!-- x -->
    <defs>
     <path d="M 54.890625 54.6875 
L 35.109375 28.078125 
L 55.90625 0 
L 45.3125 0 
L 29.390625 21.484375 
L 13.484375 0 
L 2.875 0 
L 24.125 28.609375 
L 4.6875 54.6875 
L 15.28125 54.6875 
L 29.78125 35.203125 
L 44.28125 54.6875 
z
" id="DejaVuSans-78"/>
    </defs>
    <g transform="translate(288.359224 126.585)scale(0.12 -0.12)">
     <use xlink:href="#DejaVuSans-78"/>
    </g>
   </g>
   <g id="text_20">
    <!-- 4 -->
    <g transform="translate(292.520548 112.995)scale(0.12 -0.12)">
     <use xlink:href="#DejaVuSans-34"/>
    </g>
   </g>
   <g id="text_21">
    <!-- t -->
    <g transform="translate(295.606198 99.405)scale(0.12 -0.12)">
     <use xlink:href="#DejaVuSans-74"/>
    </g>
   </g>
   <g id="text_22">
    <!-- 5 -->
    <defs>
     <path d="M 10.796875 72.90625 
L 49.515625 72.90625 
L 49.515625 64.59375 
L 19.828125 64.59375 
L 19.828125 46.734375 
Q 21.96875 47.46875 24.109375 47.828125 
Q 26.265625 48.1875 28.421875 48.1875 
Q 40.625 48.1875 47.75 41.5 
Q 54.890625 34.8125 54.890625 23.390625 
Q 54.890625 11.625 47.5625 5.09375 
Q 40.234375 -1.421875 26.90625 -1.421875 
Q 22.3125 -1.421875 17.546875 -0.640625 
Q 12.796875 0.140625 7.71875 1.703125 
L 7.71875 11.625 
Q 12.109375 9.234375 16.796875 8.0625 
Q 21.484375 6.890625 26.703125 6.890625 
Q 35.15625 6.890625 40.078125 11.328125 
Q 45.015625 15.765625 45.015625 23.390625 
Q 45.015625 31 40.078125 35.4375 
Q 35.15625 39.890625 26.703125 39.890625 
Q 22.75 39.890625 18.8125 39.015625 
Q 14.890625 38.140625 10.796875 36.28125 
z
" id="DejaVuSans-35"/>
    </defs>
    <g transform="translate(302.581479 85.815)scale(0.12 -0.12)">
     <use xlink:href="#DejaVuSans-35"/>
    </g>
   </g>
   <g id="text_23">
    <!-- 9 -->
    <defs>
     <path d="M 10.984375 1.515625 
L 10.984375 10.5 
Q 14.703125 8.734375 18.5 7.8125 
Q 22.3125 6.890625 25.984375 6.890625 
Q 35.75 6.890625 40.890625 13.453125 
Q 46.046875 20.015625 46.78125 33.40625 
Q 43.953125 29.203125 39.59375 26.953125 
Q 35.25 24.703125 29.984375 24.703125 
Q 19.046875 24.703125 12.671875 31.3125 
Q 6.296875 37.9375 6.296875 49.421875 
Q 6.296875 60.640625 12.9375 67.421875 
Q 19.578125 74.21875 30.609375 74.21875 
Q 43.265625 74.21875 49.921875 64.515625 
Q 56.59375 54.828125 56.59375 36.375 
Q 56.59375 19.140625 48.40625 8.859375 
Q 40.234375 -1.421875 26.421875 -1.421875 
Q 22.703125 -1.421875 18.890625 -0.6875 
Q 15.09375 0.046875 10.984375 1.515625 
z
M 30.609375 32.421875 
Q 37.25 32.421875 41.125 36.953125 
Q 45.015625 41.5 45.015625 49.421875 
Q 45.015625 57.28125 41.125 61.84375 
Q 37.25 66.40625 30.609375 66.40625 
Q 23.96875 66.40625 20.09375 61.84375 
Q 16.21875 57.28125 16.21875 49.421875 
Q 16.21875 41.5 20.09375 36.953125 
Q 23.96875 32.421875 30.609375 32.421875 
z
" id="DejaVuSans-39"/>
    </defs>
    <g transform="translate(314.353168 180.945)scale(0.12 -0.12)">
     <use xlink:href="#DejaVuSans-39"/>
    </g>
   </g>
   <g id="text_24">
    <!-- g -->
    <defs>
     <path d="M 45.40625 27.984375 
Q 45.40625 37.75 41.375 43.109375 
Q 37.359375 48.484375 30.078125 48.484375 
Q 22.859375 48.484375 18.828125 43.109375 
Q 14.796875 37.75 14.796875 27.984375 
Q 14.796875 18.265625 18.828125 12.890625 
Q 22.859375 7.515625 30.078125 7.515625 
Q 37.359375 7.515625 41.375 12.890625 
Q 45.40625 18.265625 45.40625 27.984375 
z
M 54.390625 6.78125 
Q 54.390625 -7.171875 48.1875 -13.984375 
Q 42 -20.796875 29.203125 -20.796875 
Q 24.46875 -20.796875 20.265625 -20.09375 
Q 16.0625 -19.390625 12.109375 -17.921875 
L 12.109375 -9.1875 
Q 16.0625 -11.328125 19.921875 -12.34375 
Q 23.78125 -13.375 27.78125 -13.375 
Q 36.625 -13.375 41.015625 -8.765625 
Q 45.40625 -4.15625 45.40625 5.171875 
L 45.40625 9.625 
Q 42.625 4.78125 38.28125 2.390625 
Q 33.9375 0 27.875 0 
Q 17.828125 0 11.671875 7.65625 
Q 5.515625 15.328125 5.515625 27.984375 
Q 5.515625 40.671875 11.671875 48.328125 
Q 17.828125 56 27.875 56 
Q 33.9375 56 38.28125 53.609375 
Q 42.625 51.21875 45.40625 46.390625 
L 45.40625 54.6875 
L 54.390625 54.6875 
z
" id="DejaVuSans-67"/>
    </defs>
    <g transform="translate(314.633569 167.355)scale(0.12 -0.12)">
     <use xlink:href="#DejaVuSans-67"/>
    </g>
   </g>
   <g id="text_25">
    <!-- s -->
    <defs>
     <path d="M 44.28125 53.078125 
L 44.28125 44.578125 
Q 40.484375 46.53125 36.375 47.5 
Q 32.28125 48.484375 27.875 48.484375 
Q 21.1875 48.484375 17.84375 46.4375 
Q 14.5 44.390625 14.5 40.28125 
Q 14.5 37.15625 16.890625 35.375 
Q 19.28125 33.59375 26.515625 31.984375 
L 29.59375 31.296875 
Q 39.15625 29.25 43.1875 25.515625 
Q 47.21875 21.78125 47.21875 15.09375 
Q 47.21875 7.46875 41.1875 3.015625 
Q 35.15625 -1.421875 24.609375 -1.421875 
Q 20.21875 -1.421875 15.453125 -0.5625 
Q 10.6875 0.296875 5.421875 2 
L 5.421875 11.28125 
Q 10.40625 8.6875 15.234375 7.390625 
Q 20.0625 6.109375 24.8125 6.109375 
Q 31.15625 6.109375 34.5625 8.28125 
Q 37.984375 10.453125 37.984375 14.40625 
Q 37.984375 18.0625 35.515625 20.015625 
Q 33.0625 21.96875 24.703125 23.78125 
L 21.578125 24.515625 
Q 13.234375 26.265625 9.515625 29.90625 
Q 5.8125 33.546875 5.8125 39.890625 
Q 5.8125 47.609375 11.28125 51.796875 
Q 16.75 56 26.8125 56 
Q 31.78125 56 36.171875 55.265625 
Q 40.578125 54.546875 44.28125 53.078125 
z
" id="DejaVuSans-73"/>
    </defs>
    <g transform="translate(315.208712 153.765)scale(0.12 -0.12)">
     <use xlink:href="#DejaVuSans-73"/>
    </g>
   </g>
   <g id="text_26">
    <!-- 6 -->
    <g transform="translate(316.932122 140.175)scale(0.12 -0.12)">
     <use xlink:href="#DejaVuSans-36"/>
    </g>
   </g>
   <g id="text_27">
    <!-- u -->
    <g transform="translate(332.16569 180.945)scale(0.12 -0.12)">
     <use xlink:href="#DejaVuSans-75"/>
    </g>
   </g>
   <g id="text_28">
    <!-- n -->
    <defs>
     <path d="M 54.890625 33.015625 
L 54.890625 0 
L 45.90625 0 
L 45.90625 32.71875 
Q 45.90625 40.484375 42.875 44.328125 
Q 39.84375 48.1875 33.796875 48.1875 
Q 26.515625 48.1875 22.3125 43.546875 
Q 18.109375 38.921875 18.109375 30.90625 
L 18.109375 0 
L 9.078125 0 
L 9.078125 54.6875 
L 18.109375 54.6875 
L 18.109375 46.1875 
Q 21.34375 51.125 25.703125 53.5625 
Q 30.078125 56 35.796875 56 
Q 45.21875 56 50.046875 50.171875 
Q 54.890625 44.34375 54.890625 33.015625 
z
" id="DejaVuSans-6e"/>
    </defs>
    <g transform="translate(354.579623 180.945)scale(0.12 -0.12)">
     <use xlink:href="#DejaVuSans-6e"/>
    </g>
   </g>
   <g id="text_29">
    <!-- p -->
    <defs>
     <path d="M 18.109375 8.203125 
L 18.109375 -20.796875 
L 9.078125 -20.796875 
L 9.078125 54.6875 
L 18.109375 54.6875 
L 18.109375 46.390625 
Q 20.953125 51.265625 25.265625 53.625 
Q 29.59375 56 35.59375 56 
Q 45.5625 56 51.78125 48.09375 
Q 58.015625 40.1875 58.015625 27.296875 
Q 58.015625 14.40625 51.78125 6.484375 
Q 45.5625 -1.421875 35.59375 -1.421875 
Q 29.59375 -1.421875 25.265625 0.953125 
Q 20.953125 3.328125 18.109375 8.203125 
z
M 48.6875 27.296875 
Q 48.6875 37.203125 44.609375 42.84375 
Q 40.53125 48.484375 33.40625 48.484375 
Q 26.265625 48.484375 22.1875 42.84375 
Q 18.109375 37.203125 18.109375 27.296875 
Q 18.109375 17.390625 22.1875 11.75 
Q 26.265625 6.109375 33.40625 6.109375 
Q 40.53125 6.109375 44.609375 11.75 
Q 48.6875 17.390625 48.6875 27.296875 
z
" id="DejaVuSans-70"/>
    </defs>
    <g transform="translate(358.241999 167.355)scale(0.12 -0.12)">
     <use xlink:href="#DejaVuSans-70"/>
    </g>
   </g>
   <g id="text_30">
    <!-- v -->
    <defs>
     <path d="M 2.984375 54.6875 
L 12.5 54.6875 
L 29.59375 8.796875 
L 46.6875 54.6875 
L 56.203125 54.6875 
L 35.6875 0 
L 23.484375 0 
z
" id="DejaVuSans-76"/>
    </defs>
    <g transform="translate(364.949825 153.765)scale(0.12 -0.12)">
     <use xlink:href="#DejaVuSans-76"/>
    </g>
   </g>
   <g id="text_31">
    <!-- i -->
    <g transform="translate(396.057175 180.945)scale(0.12 -0.12)">
     <use xlink:href="#DejaVuSans-69"/>
    </g>
   </g>
   <g id="text_32">
    <!-- l -->
    <g transform="translate(397.927921 167.355)scale(0.12 -0.12)">
     <use xlink:href="#DejaVuSans-6c"/>
    </g>
   </g>
   <g id="text_33">
    <!-- 3 -->
    <defs>
     <path d="M 40.578125 39.3125 
Q 47.65625 37.796875 51.625 33 
Q 55.609375 28.21875 55.609375 21.1875 
Q 55.609375 10.40625 48.1875 4.484375 
Q 40.765625 -1.421875 27.09375 -1.421875 
Q 22.515625 -1.421875 17.65625 -0.515625 
Q 12.796875 0.390625 7.625 2.203125 
L 7.625 11.71875 
Q 11.71875 9.328125 16.59375 8.109375 
Q 21.484375 6.890625 26.8125 6.890625 
Q 36.078125 6.890625 40.9375 10.546875 
Q 45.796875 14.203125 45.796875 21.1875 
Q 45.796875 27.640625 41.28125 31.265625 
Q 36.765625 34.90625 28.71875 34.90625 
L 20.21875 34.90625 
L 20.21875 43.015625 
L 29.109375 43.015625 
Q 36.375 43.015625 40.234375 45.921875 
Q 44.09375 48.828125 44.09375 54.296875 
Q 44.09375 59.90625 40.109375 62.90625 
Q 36.140625 65.921875 28.71875 65.921875 
Q 24.65625 65.921875 20.015625 65.03125 
Q 15.375 64.15625 9.8125 62.3125 
L 9.8125 71.09375 
Q 15.4375 72.65625 20.34375 73.4375 
Q 25.25 74.21875 29.59375 74.21875 
Q 40.828125 74.21875 47.359375 69.109375 
Q 53.90625 64.015625 53.90625 55.328125 
Q 53.90625 49.265625 50.4375 45.09375 
Q 46.96875 40.921875 40.578125 39.3125 
z
" id="DejaVuSans-33"/>
    </defs>
    <g transform="translate(402.726118 153.765)scale(0.12 -0.12)">
     <use xlink:href="#DejaVuSans-33"/>
    </g>
   </g>
   <g id="text_34">
    <!-- m -->
    <defs>
     <path d="M 52 44.1875 
Q 55.375 50.25 60.0625 53.125 
Q 64.75 56 71.09375 56 
Q 79.640625 56 84.28125 50.015625 
Q 88.921875 44.046875 88.921875 33.015625 
L 88.921875 0 
L 79.890625 0 
L 79.890625 32.71875 
Q 79.890625 40.578125 77.09375 44.375 
Q 74.3125 48.1875 68.609375 48.1875 
Q 61.625 48.1875 57.5625 43.546875 
Q 53.515625 38.921875 53.515625 30.90625 
L 53.515625 0 
L 44.484375 0 
L 44.484375 32.71875 
Q 44.484375 40.625 41.703125 44.40625 
Q 38.921875 48.1875 33.109375 48.1875 
Q 26.21875 48.1875 22.15625 43.53125 
Q 18.109375 38.875 18.109375 30.90625 
L 18.109375 0 
L 9.078125 0 
L 9.078125 54.6875 
L 18.109375 54.6875 
L 18.109375 46.1875 
Q 21.1875 51.21875 25.484375 53.609375 
Q 29.78125 56 35.6875 56 
Q 41.65625 56 45.828125 52.96875 
Q 50 49.953125 52 44.1875 
z
" id="DejaVuSans-6d"/>
    </defs>
    <g transform="translate(419.303824 180.945)scale(0.12 -0.12)">
     <use xlink:href="#DejaVuSans-6d"/>
    </g>
   </g>
   <g id="text_35">
    <!-- 7 -->
    <defs>
     <path d="M 8.203125 72.90625 
L 55.078125 72.90625 
L 55.078125 68.703125 
L 28.609375 0 
L 18.3125 0 
L 43.21875 64.59375 
L 8.203125 64.59375 
z
" id="DejaVuSans-37"/>
    </defs>
    <g transform="translate(433.337814 180.945)scale(0.12 -0.12)">
     <use xlink:href="#DejaVuSans-37"/>
    </g>
   </g>
   <g id="text_36">
    <!-- j -->
    <defs>
     <path d="M 9.421875 54.6875 
L 18.40625 54.6875 
L 18.40625 -0.984375 
Q 18.40625 -11.421875 14.421875 -16.109375 
Q 10.453125 -20.796875 1.609375 -20.796875 
L -1.8125 -20.796875 
L -1.8125 -13.1875 
L 0.59375 -13.1875 
Q 5.71875 -13.1875 7.5625 -10.8125 
Q 9.421875 -8.453125 9.421875 -0.984375 
z
M 9.421875 75.984375 
L 18.40625 75.984375 
L 18.40625 64.59375 
L 9.421875 64.59375 
z
" id="DejaVuSans-6a"/>
    </defs>
    <g transform="translate(477.262115 180.945)scale(0.12 -0.12)">
     <use xlink:href="#DejaVuSans-6a"/>
    </g>
   </g>
   <g id="text_37">
    <!-- y -->
    <g transform="translate(482.293943 167.355)scale(0.12 -0.12)">
     <use xlink:href="#DejaVuSans-79"/>
    </g>
   </g>
   <g id="text_38">
    <!-- w -->
    <defs>
     <path d="M 4.203125 54.6875 
L 13.1875 54.6875 
L 24.421875 12.015625 
L 35.59375 54.6875 
L 46.1875 54.6875 
L 57.421875 12.015625 
L 68.609375 54.6875 
L 77.59375 54.6875 
L 63.28125 0 
L 52.6875 0 
L 40.921875 44.828125 
L 29.109375 0 
L 18.5 0 
z
" id="DejaVuSans-77"/>
    </defs>
    <g transform="translate(497.719605 180.945)scale(0.12 -0.12)">
     <use xlink:href="#DejaVuSans-77"/>
    </g>
   </g>
   <g id="text_39">
    <!-- z -->
    <defs>
     <path d="M 5.515625 54.6875 
L 48.1875 54.6875 
L 48.1875 46.484375 
L 14.40625 7.171875 
L 48.1875 7.171875 
L 48.1875 0 
L 4.296875 0 
L 4.296875 8.203125 
L 38.09375 47.515625 
L 5.515625 47.515625 
z
" id="DejaVuSans-7a"/>
    </defs>
    <g transform="translate(526.795826 180.945)scale(0.12 -0.12)">
     <use xlink:href="#DejaVuSans-7a"/>
    </g>
   </g>
   <g id="text_40">
    <!-- h -->
    <defs>
     <path d="M 54.890625 33.015625 
L 54.890625 0 
L 45.90625 0 
L 45.90625 32.71875 
Q 45.90625 40.484375 42.875 44.328125 
Q 39.84375 48.1875 33.796875 48.1875 
Q 26.515625 48.1875 22.3125 43.546875 
Q 18.109375 38.921875 18.109375 30.90625 
L 18.109375 0 
L 9.078125 0 
L 9.078125 75.984375 
L 18.109375 75.984375 
L 18.109375 46.1875 
Q 21.34375 51.125 25.703125 53.5625 
Q 30.078125 56 35.796875 56 
Q 45.21875 56 50.046875 50.171875 
Q 54.890625 44.34375 54.890625 33.015625 
z
" id="DejaVuSans-68"/>
    </defs>
    <g transform="translate(534.635275 167.355)scale(0.12 -0.12)">
     <use xlink:href="#DejaVuSans-68"/>
    </g>
   </g>
   <g id="text_41">
    <!-- f -->
    <g transform="translate(535.259449 153.765)scale(0.12 -0.12)">
     <use xlink:href="#DejaVuSans-66"/>
    </g>
   </g>
   <g id="text_42">
    <!-- b -->
    <defs>
     <path d="M 48.6875 27.296875 
Q 48.6875 37.203125 44.609375 42.84375 
Q 40.53125 48.484375 33.40625 48.484375 
Q 26.265625 48.484375 22.1875 42.84375 
Q 18.109375 37.203125 18.109375 27.296875 
Q 18.109375 17.390625 22.1875 11.75 
Q 26.265625 6.109375 33.40625 6.109375 
Q 40.53125 6.109375 44.609375 11.75 
Q 48.6875 17.390625 48.6875 27.296875 
z
M 18.109375 46.390625 
Q 20.953125 51.265625 25.265625 53.625 
Q 29.59375 56 35.59375 56 
Q 45.5625 56 51.78125 48.09375 
Q 58.015625 40.1875 58.015625 27.296875 
Q 58.015625 14.40625 51.78125 6.484375 
Q 45.5625 -1.421875 35.59375 -1.421875 
Q 29.59375 -1.421875 25.265625 0.953125 
Q 20.953125 3.328125 18.109375 8.203125 
L 18.109375 0 
L 9.078125 0 
L 9.078125 75.984375 
L 18.109375 75.984375 
z
" id="DejaVuSans-62"/>
    </defs>
    <g transform="translate(588.835312 180.945)scale(0.12 -0.12)">
     <use xlink:href="#DejaVuSans-62"/>
    </g>
   </g>
   <g id="text_43">
    <!-- k -->
    <defs>
     <path d="M 9.078125 75.984375 
L 18.109375 75.984375 
L 18.109375 31.109375 
L 44.921875 54.6875 
L 56.390625 54.6875 
L 27.390625 29.109375 
L 57.625 0 
L 45.90625 0 
L 18.109375 26.703125 
L 18.109375 0 
L 9.078125 0 
z
" id="DejaVuSans-6b"/>
    </defs>
    <g transform="translate(620.1 180.945)scale(0.12 -0.12)">
     <use xlink:href="#DejaVuSans-6b"/>
    </g>
   </g>
   <g id="text_44">
    <!-- 0 -->
    <g transform="translate(213.632505 255.69)scale(0.12 -0.12)">
     <use xlink:href="#DejaVuSans-30"/>
    </g>
   </g>
   <g id="text_45">
    <!-- c -->
    <g transform="translate(254.996362 255.69)scale(0.12 -0.12)">
     <use xlink:href="#DejaVuSans-63"/>
    </g>
   </g>
   <g id="text_46">
    <!-- 2 -->
    <g transform="translate(277.599443 255.69)scale(0.12 -0.12)">
     <use xlink:href="#DejaVuSans-32"/>
    </g>
   </g>
   <g id="text_47">
    <!-- a -->
    <g transform="translate(282.535032 270.639)scale(0.12 -0.12)">
     <use xlink:href="#DejaVuSans-61"/>
    </g>
   </g>
   <g id="text_48">
    <!-- 8 -->
    <g transform="translate(295.056999 255.69)scale(0.12 -0.12)">
     <use xlink:href="#DejaVuSans-38"/>
    </g>
   </g>
   <g id="text_49">
    <!-- g -->
    <g transform="translate(315.631382 255.69)scale(0.12 -0.12)">
     <use xlink:href="#DejaVuSans-67"/>
    </g>
   </g>
   <g id="text_50">
    <!-- e -->
    <g transform="translate(318.176342 270.639)scale(0.12 -0.12)">
     <use xlink:href="#DejaVuSans-65"/>
    </g>
   </g>
   <g id="text_51">
    <!-- q -->
    <g transform="translate(325.780222 285.588)scale(0.12 -0.12)">
     <use xlink:href="#DejaVuSans-71"/>
    </g>
   </g>
   <g id="text_52">
    <!-- x -->
    <g transform="translate(331.887596 300.537)scale(0.12 -0.12)">
     <use xlink:href="#DejaVuSans-78"/>
    </g>
   </g>
   <g id="text_53">
    <!-- d -->
    <g transform="translate(337.002654 315.486)scale(0.12 -0.12)">
     <use xlink:href="#DejaVuSans-64"/>
    </g>
   </g>
   <g id="text_54">
    <!-- o -->
    <g transform="translate(339.889673 330.435)scale(0.12 -0.12)">
     <use xlink:href="#DejaVuSans-6f"/>
    </g>
   </g>
   <g id="text_55">
    <!-- s -->
    <g transform="translate(363.601521 255.69)scale(0.12 -0.12)">
     <use xlink:href="#DejaVuSans-73"/>
    </g>
   </g>
   <g id="text_56">
    <!-- 9 -->
    <g transform="translate(364.405477 270.639)scale(0.12 -0.12)">
     <use xlink:href="#DejaVuSans-39"/>
    </g>
   </g>
   <g id="text_57">
    <!-- r -->
    <g transform="translate(364.640999 285.588)scale(0.12 -0.12)">
     <use xlink:href="#DejaVuSans-72"/>
    </g>
   </g>
   <g id="text_58">
    <!-- 1 -->
    <g transform="translate(366.474111 300.537)scale(0.12 -0.12)">
     <use xlink:href="#DejaVuSans-31"/>
    </g>
   </g>
   <g id="text_59">
    <!-- u -->
    <g transform="translate(368.47131 315.486)scale(0.12 -0.12)">
     <use xlink:href="#DejaVuSans-75"/>
    </g>
   </g>
   <g id="text_60">
    <!-- t -->
    <g transform="translate(370.871601 330.435)scale(0.12 -0.12)">
     <use xlink:href="#DejaVuSans-74"/>
    </g>
   </g>
   <g id="text_61">
    <!-- 6 -->
    <g transform="translate(375.692128 345.384)scale(0.12 -0.12)">
     <use xlink:href="#DejaVuSans-36"/>
    </g>
   </g>
   <g id="text_62">
    <!-- v -->
    <g transform="translate(376.222545 360.333)scale(0.12 -0.12)">
     <use xlink:href="#DejaVuSans-76"/>
    </g>
   </g>
   <g id="text_63">
    <!-- 4 -->
    <g transform="translate(386.369956 255.69)scale(0.12 -0.12)">
     <use xlink:href="#DejaVuSans-34"/>
    </g>
   </g>
   <g id="text_64">
    <!-- 5 -->
    <g transform="translate(402.912422 255.69)scale(0.12 -0.12)">
     <use xlink:href="#DejaVuSans-35"/>
    </g>
   </g>
   <g id="text_65">
    <!-- p -->
    <g transform="translate(422.240333 255.69)scale(0.12 -0.12)">
     <use xlink:href="#DejaVuSans-70"/>
    </g>
   </g>
   <g id="text_66">
    <!-- l -->
    <g transform="translate(426.64482 270.639)scale(0.12 -0.12)">
     <use xlink:href="#DejaVuSans-6c"/>
    </g>
   </g>
   <g id="text_67">
    <!-- m -->
    <g transform="translate(439.992982 255.69)scale(0.12 -0.12)">
     <use xlink:href="#DejaVuSans-6d"/>
    </g>
   </g>
   <g id="text_68">
    <!-- n -->
    <g transform="translate(468.724311 255.69)scale(0.12 -0.12)">
     <use xlink:href="#DejaVuSans-6e"/>
    </g>
   </g>
   <g id="text_69">
    <!-- j -->
    <g transform="translate(471.932698 270.639)scale(0.12 -0.12)">
     <use xlink:href="#DejaVuSans-6a"/>
    </g>
   </g>
   <g id="text_70">
    <!-- i -->
    <g transform="translate(475.927247 285.588)scale(0.12 -0.12)">
     <use xlink:href="#DejaVuSans-69"/>
    </g>
   </g>
   <g id="text_71">
    <!-- y -->
    <g transform="translate(488.081188 255.69)scale(0.12 -0.12)">
     <use xlink:href="#DejaVuSans-79"/>
    </g>
   </g>
   <g id="text_72">
    <!-- 7 -->
    <g transform="translate(515.61755 255.69)scale(0.12 -0.12)">
     <use xlink:href="#DejaVuSans-37"/>
    </g>
   </g>
   <g id="text_73">
    <!-- w -->
    <g transform="translate(524.816838 270.639)scale(0.12 -0.12)">
     <use xlink:href="#DejaVuSans-77"/>
    </g>
   </g>
   <g id="text_74">
    <!-- z -->
    <g transform="translate(545.537418 255.69)scale(0.12 -0.12)">
     <use xlink:href="#DejaVuSans-7a"/>
    </g>
   </g>
   <g id="text_75">
    <!-- 3 -->
    <g transform="translate(563.261657 255.69)scale(0.12 -0.12)">
     <use xlink:href="#DejaVuSans-33"/>
    </g>
   </g>
   <g id="text_76">
    <!-- f -->
    <g transform="translate(568.107335 270.639)scale(0.12 -0.12)">
     <use xlink:href="#DejaVuSans-66"/>
    </g>
   </g>
   <g id="text_77">
    <!-- k -->
    <g transform="translate(580.372545 255.69)scale(0.12 -0.12)">
     <use xlink:href="#DejaVuSans-6b"/>
    </g>
   </g>
   <g id="text_78">
    <!-- h -->
    <g transform="translate(584.343649 270.639)scale(0.12 -0.12)">
     <use xlink:href="#DejaVuSans-68"/>
    </g>
   </g>
   <g id="text_79">
    <!-- b -->
    <g transform="translate(620.1 255.69)scale(0.12 -0.12)">
     <use xlink:href="#DejaVuSans-62"/>
    </g>
   </g>
   <g id="text_80">
    <!-- Letter Difficulty Based On Median Value Versus The 75th Percentile -->
    <defs>
     <path d="M 19.671875 34.8125 
L 19.671875 8.109375 
L 35.5 8.109375 
Q 43.453125 8.109375 47.28125 11.40625 
Q 51.125 14.703125 51.125 21.484375 
Q 51.125 28.328125 47.28125 31.5625 
Q 43.453125 34.8125 35.5 34.8125 
z
M 19.671875 64.796875 
L 19.671875 42.828125 
L 34.28125 42.828125 
Q 41.5 42.828125 45.03125 45.53125 
Q 48.578125 48.25 48.578125 53.8125 
Q 48.578125 59.328125 45.03125 62.0625 
Q 41.5 64.796875 34.28125 64.796875 
z
M 9.8125 72.90625 
L 35.015625 72.90625 
Q 46.296875 72.90625 52.390625 68.21875 
Q 58.5 63.53125 58.5 54.890625 
Q 58.5 48.1875 55.375 44.234375 
Q 52.25 40.28125 46.1875 39.3125 
Q 53.46875 37.75 57.5 32.78125 
Q 61.53125 27.828125 61.53125 20.40625 
Q 61.53125 10.640625 54.890625 5.3125 
Q 48.25 0 35.984375 0 
L 9.8125 0 
z
" id="DejaVuSans-42"/>
     <path d="M 39.40625 66.21875 
Q 28.65625 66.21875 22.328125 58.203125 
Q 16.015625 50.203125 16.015625 36.375 
Q 16.015625 22.609375 22.328125 14.59375 
Q 28.65625 6.59375 39.40625 6.59375 
Q 50.140625 6.59375 56.421875 14.59375 
Q 62.703125 22.609375 62.703125 36.375 
Q 62.703125 50.203125 56.421875 58.203125 
Q 50.140625 66.21875 39.40625 66.21875 
z
M 39.40625 74.21875 
Q 54.734375 74.21875 63.90625 63.9375 
Q 73.09375 53.65625 73.09375 36.375 
Q 73.09375 19.140625 63.90625 8.859375 
Q 54.734375 -1.421875 39.40625 -1.421875 
Q 24.03125 -1.421875 14.8125 8.828125 
Q 5.609375 19.09375 5.609375 36.375 
Q 5.609375 53.65625 14.8125 63.9375 
Q 24.03125 74.21875 39.40625 74.21875 
z
" id="DejaVuSans-4f"/>
     <path d="M 9.8125 72.90625 
L 24.515625 72.90625 
L 43.109375 23.296875 
L 61.8125 72.90625 
L 76.515625 72.90625 
L 76.515625 0 
L 66.890625 0 
L 66.890625 64.015625 
L 48.09375 14.015625 
L 38.1875 14.015625 
L 19.390625 64.015625 
L 19.390625 0 
L 9.8125 0 
z
" id="DejaVuSans-4d"/>
     <path d="M 28.609375 0 
L 0.78125 72.90625 
L 11.078125 72.90625 
L 34.1875 11.53125 
L 57.328125 72.90625 
L 67.578125 72.90625 
L 39.796875 0 
z
" id="DejaVuSans-56"/>
     <path d="M -0.296875 72.90625 
L 61.375 72.90625 
L 61.375 64.59375 
L 35.5 64.59375 
L 35.5 0 
L 25.59375 0 
L 25.59375 64.59375 
L -0.296875 64.59375 
z
" id="DejaVuSans-54"/>
     <path d="M 19.671875 64.796875 
L 19.671875 37.40625 
L 32.078125 37.40625 
Q 38.96875 37.40625 42.71875 40.96875 
Q 46.484375 44.53125 46.484375 51.125 
Q 46.484375 57.671875 42.71875 61.234375 
Q 38.96875 64.796875 32.078125 64.796875 
z
M 9.8125 72.90625 
L 32.078125 72.90625 
Q 44.34375 72.90625 50.609375 67.359375 
Q 56.890625 61.8125 56.890625 51.125 
Q 56.890625 40.328125 50.609375 34.8125 
Q 44.34375 29.296875 32.078125 29.296875 
L 19.671875 29.296875 
L 19.671875 0 
L 9.8125 0 
z
" id="DejaVuSans-50"/>
    </defs>
    <g transform="translate(166.184063 45.84)scale(0.12 -0.12)">
     <use xlink:href="#DejaVuSans-4c"/>
     <use x="55.697266" xlink:href="#DejaVuSans-65"/>
     <use x="117.220703" xlink:href="#DejaVuSans-74"/>
     <use x="156.429688" xlink:href="#DejaVuSans-74"/>
     <use x="195.638672" xlink:href="#DejaVuSans-65"/>
     <use x="257.162109" xlink:href="#DejaVuSans-72"/>
     <use x="298.275391" xlink:href="#DejaVuSans-20"/>
     <use x="330.0625" xlink:href="#DejaVuSans-44"/>
     <use x="407.064453" xlink:href="#DejaVuSans-69"/>
     <use x="434.847656" xlink:href="#DejaVuSans-66"/>
     <use x="470.052734" xlink:href="#DejaVuSans-66"/>
     <use x="505.257812" xlink:href="#DejaVuSans-69"/>
     <use x="533.041016" xlink:href="#DejaVuSans-63"/>
     <use x="588.021484" xlink:href="#DejaVuSans-75"/>
     <use x="651.400391" xlink:href="#DejaVuSans-6c"/>
     <use x="679.183594" xlink:href="#DejaVuSans-74"/>
     <use x="718.392578" xlink:href="#DejaVuSans-79"/>
     <use x="777.572266" xlink:href="#DejaVuSans-20"/>
     <use x="809.359375" xlink:href="#DejaVuSans-42"/>
     <use x="877.962891" xlink:href="#DejaVuSans-61"/>
     <use x="939.242188" xlink:href="#DejaVuSans-73"/>
     <use x="991.341797" xlink:href="#DejaVuSans-65"/>
     <use x="1052.865234" xlink:href="#DejaVuSans-64"/>
     <use x="1116.341797" xlink:href="#DejaVuSans-20"/>
     <use x="1148.128906" xlink:href="#DejaVuSans-4f"/>
     <use x="1226.839844" xlink:href="#DejaVuSans-6e"/>
     <use x="1290.21875" xlink:href="#DejaVuSans-20"/>
     <use x="1322.005859" xlink:href="#DejaVuSans-4d"/>
     <use x="1408.285156" xlink:href="#DejaVuSans-65"/>
     <use x="1469.808594" xlink:href="#DejaVuSans-64"/>
     <use x="1533.285156" xlink:href="#DejaVuSans-69"/>
     <use x="1561.068359" xlink:href="#DejaVuSans-61"/>
     <use x="1622.347656" xlink:href="#DejaVuSans-6e"/>
     <use x="1685.726562" xlink:href="#DejaVuSans-20"/>
     <use x="1717.513672" xlink:href="#DejaVuSans-56"/>
     <use x="1785.8125" xlink:href="#DejaVuSans-61"/>
     <use x="1847.091797" xlink:href="#DejaVuSans-6c"/>
     <use x="1874.875" xlink:href="#DejaVuSans-75"/>
     <use x="1938.253906" xlink:href="#DejaVuSans-65"/>
     <use x="1999.777344" xlink:href="#DejaVuSans-20"/>
     <use x="2031.564453" xlink:href="#DejaVuSans-56"/>
     <use x="2099.863281" xlink:href="#DejaVuSans-65"/>
     <use x="2161.386719" xlink:href="#DejaVuSans-72"/>
     <use x="2202.5" xlink:href="#DejaVuSans-73"/>
     <use x="2254.599609" xlink:href="#DejaVuSans-75"/>
     <use x="2317.978516" xlink:href="#DejaVuSans-73"/>
     <use x="2370.078125" xlink:href="#DejaVuSans-20"/>
     <use x="2401.865234" xlink:href="#DejaVuSans-54"/>
     <use x="2462.949219" xlink:href="#DejaVuSans-68"/>
     <use x="2526.328125" xlink:href="#DejaVuSans-65"/>
     <use x="2587.851562" xlink:href="#DejaVuSans-20"/>
     <use x="2619.638672" xlink:href="#DejaVuSans-37"/>
     <use x="2683.261719" xlink:href="#DejaVuSans-35"/>
     <use x="2746.884766" xlink:href="#DejaVuSans-74"/>
     <use x="2786.09375" xlink:href="#DejaVuSans-68"/>
     <use x="2849.472656" xlink:href="#DejaVuSans-20"/>
     <use x="2881.259766" xlink:href="#DejaVuSans-50"/>
     <use x="2941.515625" xlink:href="#DejaVuSans-65"/>
     <use x="3003.039062" xlink:href="#DejaVuSans-72"/>
     <use x="3044.121094" xlink:href="#DejaVuSans-63"/>
     <use x="3099.101562" xlink:href="#DejaVuSans-65"/>
     <use x="3160.625" xlink:href="#DejaVuSans-6e"/>
     <use x="3224.003906" xlink:href="#DejaVuSans-74"/>
     <use x="3263.212891" xlink:href="#DejaVuSans-69"/>
     <use x="3290.996094" xlink:href="#DejaVuSans-6c"/>
     <use x="3318.779297" xlink:href="#DejaVuSans-65"/>
    </g>
   </g>
   <g id="legend_1">
    <g id="patch_7">
     <path d="M 532.934375 89.19625 
L 641 89.19625 
Q 643 89.19625 643 87.19625 
L 643 58.84 
Q 643 56.84 641 56.84 
L 532.934375 56.84 
Q 530.934375 56.84 530.934375 58.84 
L 530.934375 87.19625 
Q 530.934375 89.19625 532.934375 89.19625 
z
" style="fill:#ffffff;opacity:0.8;stroke:#cccccc;stroke-linejoin:miter;"/>
    </g>
    <g id="PathCollection_3">
     <g>
      <use style="fill:#1f77b4;stroke:#1f77b4;" x="544.934375" xlink:href="#m19675ad550" y="65.813437"/>
     </g>
    </g>
    <g id="text_81">
     <!-- Median value -->
     <g transform="translate(562.934375 68.438437)scale(0.1 -0.1)">
      <use xlink:href="#DejaVuSans-4d"/>
      <use x="86.279297" xlink:href="#DejaVuSans-65"/>
      <use x="147.802734" xlink:href="#DejaVuSans-64"/>
      <use x="211.279297" xlink:href="#DejaVuSans-69"/>
      <use x="239.0625" xlink:href="#DejaVuSans-61"/>
      <use x="300.341797" xlink:href="#DejaVuSans-6e"/>
      <use x="363.720703" xlink:href="#DejaVuSans-20"/>
      <use x="395.507812" xlink:href="#DejaVuSans-76"/>
      <use x="454.6875" xlink:href="#DejaVuSans-61"/>
      <use x="515.966797" xlink:href="#DejaVuSans-6c"/>
      <use x="543.75" xlink:href="#DejaVuSans-75"/>
      <use x="607.128906" xlink:href="#DejaVuSans-65"/>
     </g>
    </g>
    <g id="PathCollection_4">
     <g>
      <use style="fill:#ff7f0e;stroke:#ff7f0e;" x="544.934375" xlink:href="#m2e20a83c7d" y="80.491562"/>
     </g>
    </g>
    <g id="text_82">
     <!-- 75th Percentile -->
     <g transform="translate(562.934375 83.116562)scale(0.1 -0.1)">
      <use xlink:href="#DejaVuSans-37"/>
      <use x="63.623047" xlink:href="#DejaVuSans-35"/>
      <use x="127.246094" xlink:href="#DejaVuSans-74"/>
      <use x="166.455078" xlink:href="#DejaVuSans-68"/>
      <use x="229.833984" xlink:href="#DejaVuSans-20"/>
      <use x="261.621094" xlink:href="#DejaVuSans-50"/>
      <use x="321.876953" xlink:href="#DejaVuSans-65"/>
      <use x="383.400391" xlink:href="#DejaVuSans-72"/>
      <use x="424.482422" xlink:href="#DejaVuSans-63"/>
      <use x="479.462891" xlink:href="#DejaVuSans-65"/>
      <use x="540.986328" xlink:href="#DejaVuSans-6e"/>
      <use x="604.365234" xlink:href="#DejaVuSans-74"/>
      <use x="643.574219" xlink:href="#DejaVuSans-69"/>
      <use x="671.357422" xlink:href="#DejaVuSans-6c"/>
      <use x="699.140625" xlink:href="#DejaVuSans-65"/>
     </g>
    </g>
   </g>
  </g>
 </g>
 <defs>
  <clipPath id="pf8520b623c">
   <rect height="326.16" width="558" x="90" y="51.84"/>
  </clipPath>
 </defs>
</svg>
